<?xml version="1.0" encoding="UTF-8"?>
<svg id="Capa_2" data-name="Capa 2" xmlns="http://www.w3.org/2000/svg" viewBox="0 0 15.2 15.21">
  <defs>
    <style>
      .cls-1 {
        fill: none;
      }

      .cls-1, .cls-2 {
        stroke-width: 0px;
      }
    </style>
  </defs>
  <g id="Capa_4" data-name="Capa 4">
    <g>
      <rect class="cls-1" width="15.2" height="15.2"/>
      <path class="cls-2" d="m11.55,15.21c-2.15,0-4.78-1.45-7.42-4.07C1.56,8.56.08,5.84.08,3.68.08,2.56.46,1.61,1.23.84l.06-.06C1.74.33,2.22.08,2.65.08c.38,0,.69.19.96.58l1.71,2.52c.4.58.32,1.19-.21,1.72l-.62.6c-.32.32-.3.78-.15,1.09.26.48,1,1.38,1.98,2.38,1.06,1.09,1.93,1.73,2.38,1.97.14.07.29.11.45.11.24,0,.47-.09.63-.26l.61-.62c.29-.3.62-.46.95-.46.25,0,.51.09.76.26l2.51,1.71c.39.26.59.59.59.97,0,.43-.24.9-.72,1.37-.01.01-.02.02-.03.03v.02s-.02,0-.02,0c-.76.76-1.73,1.15-2.88,1.15Z"/>
    </g>
  </g>
</svg>