<?xml version="1.0" encoding="UTF-8"?>
<svg id="Capa_2" data-name="Capa 2" xmlns="http://www.w3.org/2000/svg" viewBox="0 0 18.84 18.84">
  <defs>
    <style>
      .cls-1 {
        fill: none;
      }

      .cls-1, .cls-2 {
        stroke-width: 0px;
      }
    </style>
  </defs>
  <g id="Capa_4" data-name="Capa 4">
    <g>
      <rect class="cls-1" width="18.84" height="18.84"/>
      <path class="cls-2" d="m1.73,3.13c-.19,0-.37.04-.53.1l7.95,7.08c.28.25.58.25.86,0l7.94-7.08c-.16-.07-.35-.1-.53-.1H1.73Zm-1.41,1.23c0,.06-.01.13-.01.2v9.5c0,.19.04.38.11.55l5.49-5.27L.32,4.36h0Zm18.5,0l-5.57,4.97,5.48,5.27c.07-.17.1-.35.1-.54V4.56c0-.07,0-.14-.01-.2h0Zm-6.64,5.93l-1.23,1.1c-.78.7-1.98.69-2.76,0l-1.23-1.09L1.57,15.48c.05,0,.11,0,.16,0h15.68c.05,0,.11,0,.16,0l-5.38-5.19Z"/>
    </g>
  </g>
</svg>